<svg width="544" height="593" viewBox="0 0 544 593" fill="none" xmlns="http://www.w3.org/2000/svg">
<g opacity="0.05">
<path d="M518.924 254.633C518.924 253.742 517.657 252.85 517.404 251.959C527.282 256.259 535.976 262.898 542.743 271.311C542.899 257.199 538.449 243.425 530.073 232.098C521.746 220.848 510.894 211.731 498.399 205.489C505.719 206.06 512.924 207.645 519.811 210.199C526.354 213.236 532.701 216.68 538.815 220.512C535.279 205.184 527.042 191.359 515.266 180.988C503.491 170.617 488.773 164.224 473.187 162.71C488.299 159.892 503.916 162.793 517.024 170.859C509.49 156.968 498.318 145.414 484.717 137.447C471.117 129.481 455.606 125.405 439.866 125.661H436.698H439.486C454.312 122.48 469.638 122.48 484.463 125.661C475.037 116.673 463.911 109.675 451.747 105.083C439.582 100.49 426.625 98.3964 413.639 98.9249C420.311 93.1905 428.59 89.6765 437.332 88.8669C447.811 87.2875 458.501 89.6445 467.359 95.4873C448.734 75.7533 434.671 68.6235 410.852 70.024C399.514 71.2465 388.665 75.3186 379.305 81.8644C394.456 66.0408 405.317 46.5786 410.852 25.336C408.572 28.7735 401.223 38.0676 399.83 39.85C390.372 51.1068 377.876 59.3749 363.848 63.6582C349.784 67.7323 336.988 70.1513 322.798 73.7162C322.798 73.7162 330.273 66.4592 336.861 58.9475C349.175 46.5694 365.036 38.3772 382.219 35.5213C361.918 33.8904 341.534 37.3918 322.925 45.7066C339.637 26.3596 360.233 10.7833 383.359 0C380.952 0 371.83 1.90975 370.689 2.16438L367.649 3.31023C334.852 13.5251 304.464 30.3315 278.328 52.709C261.543 66.8794 246.526 83.0388 233.604 100.835C232.717 101.98 228.409 100.835 228.029 100.835C223.595 96.6332 226.129 84.1561 224.482 87.0844C221.061 93.3229 210.038 119.55 207.124 126.043C197.242 148.96 188.627 149.724 181.785 143.358C175.16 154.304 169.884 166.018 166.075 178.243L162.02 189.065L157.079 201.797C155.433 202.322 153.824 202.96 152.265 203.706L150.491 205.234C143.523 211.473 136.808 217.966 129.586 223.822C122.365 229.679 120.971 228.66 118.69 221.276C118.437 220.187 118.437 219.054 118.69 217.966C109.695 229.933 109.442 256.925 118.69 262.526L124.518 244.448C131.74 248.904 130.726 247.121 125.785 251.45C123.954 253.321 122.492 255.524 121.478 257.943C121.21 261.085 122.113 264.216 124.012 266.728C126.762 268.722 129.855 270.188 133.133 271.057C135.794 266.601 138.075 262.399 140.735 258.325C143.433 254.14 146.352 250.103 149.477 246.23C152.391 242.792 155.685 239.737 158.726 236.427L162.02 233.371L152.265 248.649L145.17 259.216L143.903 260.871C143.903 260.871 142.889 262.781 142.382 263.672C141.876 264.563 141.115 266.091 139.342 269.02C138.979 270.392 138.766 271.801 138.708 273.221C139.429 274.797 140.687 276.061 142.256 276.786C150.531 281.055 160.021 282.314 169.115 280.351C172.001 279.653 174.838 278.759 177.604 277.677L173.93 274.749C160.373 264.182 163.541 254.124 178.998 246.485C198.636 236.554 211.685 243.047 241.079 238.591C215.74 225.859 259.45 225.859 268.825 224.332C268.825 222.294 267.939 220.257 267.432 219.112C264.011 210.963 257.93 211.091 267.432 210.454C272.626 210.454 277.314 210.454 282.509 210.454C282.509 210.454 309.368 212.109 309.495 211.6C309.622 211.091 309.495 211.6 309.495 210.963C309.495 210.963 309.495 210.963 309.495 210.327C309.495 209.69 309.495 210.327 309.495 209.563C309.514 209.238 309.468 208.913 309.359 208.607C309.25 208.301 309.081 208.02 308.862 207.78C304.279 197.741 302.234 186.721 302.907 175.697C303.165 172.1 303.673 168.527 304.427 165.002C304.427 163.347 304.427 162.583 304.427 162.074C303.169 161.86 301.884 161.86 300.626 162.074C295.812 163.22 302.527 159.4 303.54 158.382C303.595 157.832 303.595 157.277 303.54 156.727C303.797 155.725 303.797 154.673 303.54 153.671C301.239 147.846 299.418 141.843 298.092 135.719C296.865 132.075 296.69 128.157 297.587 124.416C298.484 120.676 300.416 117.267 303.16 114.585C301.58 117.78 300.266 121.102 299.233 124.515C298.481 133.051 300.871 141.567 305.947 148.451C308.371 151.71 309.933 155.532 310.487 159.563C311.041 163.593 310.569 167.699 309.115 171.495C307.019 177.512 307.019 184.066 309.115 190.083C313.15 188.222 317.41 186.895 321.785 186.137C342.721 185.1 363.378 191.301 380.318 203.706C404.055 222.787 419.974 249.978 425.042 280.096C425.981 284.272 426.407 288.547 426.309 292.828C426.309 302.376 426.309 311.925 426.309 321.474C437.322 284.469 435.581 244.813 421.368 208.926C425.516 217.759 429.071 226.863 432.01 236.172C440.015 258.779 442.716 282.938 439.902 306.766C437.09 330.595 428.839 353.448 415.793 373.546C381.839 427.019 329.64 445.607 268.192 445.607C307.391 461.698 351.135 462.605 390.961 448.154C419.09 438.51 444.149 421.501 463.558 398.882C452.03 431.371 432.786 460.542 407.497 483.863C382.21 507.187 351.639 523.954 318.441 532.715C285.241 541.475 250.418 541.963 216.989 534.136C183.56 526.308 152.537 510.401 126.612 487.796C100.687 465.191 80.6424 436.569 68.218 404.417C55.7935 372.263 51.3645 337.549 55.315 303.287C59.2656 269.023 71.4765 236.247 90.8883 207.801C110.3 179.354 136.326 156.098 166.708 140.048C169.622 113.312 199.522 81.1006 237.151 63.6582C188.319 68.745 141.864 87.4129 103.005 117.565C64.1467 147.718 34.4236 188.158 17.1741 234.349C-0.0753585 280.538 -4.16784 330.646 5.35631 379.044C14.8804 427.442 37.644 472.213 71.0902 508.327C104.536 544.443 147.34 570.473 194.695 583.492C242.049 596.512 292.078 596.008 339.162 582.033C386.246 568.059 428.521 541.171 461.238 504.387C493.955 467.603 515.819 422.381 524.372 373.801C525.132 371.891 526.273 370.873 529.567 372.528V352.666C529.567 351.011 529.567 347.447 529.567 346.301C531.467 349.102 534.508 357.632 537.169 361.579C538.523 348.85 538.096 335.993 535.901 323.384C539.069 327.33 541.096 330.004 543.123 332.805C547.558 301.995 534.508 278.696 518.924 254.633ZM172.283 200.905C172.283 200.905 174.183 198.232 169.875 192.12L190.274 173.15L172.283 200.905Z" fill="#ABAFC7"/>
<path d="M138.072 273.221C138.13 271.801 138.343 270.393 138.706 269.02C138.28 269.621 138.001 270.314 137.891 271.044C137.781 271.775 137.843 272.52 138.072 273.221Z" fill="#ABAFC7"/>
<path d="M298.219 161.437C299.477 161.223 300.762 161.223 302.02 161.437C301.432 161.135 300.781 160.979 300.119 160.979C299.459 160.979 298.808 161.135 298.219 161.437Z" fill="#ABAFC7"/>
<path d="M308.353 54.6187L323.684 53.3456C314.209 63.1251 308.009 75.6317 305.946 89.1215C328.752 97.6517 399.322 73.2069 410.597 24.3174C408.444 27.755 400.969 37.0491 399.702 38.8315C390.468 50.6987 377.949 59.5579 363.72 64.2948C349.53 68.3689 336.86 70.9152 322.543 74.4801C322.543 74.4801 330.019 67.0957 336.607 59.5841C348.955 47.2079 364.869 39.0557 382.091 36.2852C361.797 34.5257 341.391 37.9871 322.797 46.3432C339.398 26.769 359.956 10.9711 383.104 0C383.104 0 316.969 16.8058 308.353 54.6187Z" fill="#ABAFC7"/>
<path d="M169.37 517.287C134.637 499.801 105.391 473.007 84.8635 439.865C64.3362 406.722 53.3265 368.522 53.0512 329.486C52.7759 290.449 63.2457 252.097 83.3035 218.666C103.361 185.234 132.225 158.026 166.708 140.048C169.622 113.312 199.522 81.1006 237.151 63.6582C187.225 68.7271 139.777 88.0073 100.379 119.234C60.9795 150.461 31.2662 192.338 14.7292 239.947C-1.80789 287.554 -4.48191 338.916 7.02121 387.998C18.5244 437.08 43.7268 481.844 79.6683 517.032C112.356 518.305 143.777 518.05 169.37 517.287Z" fill="#ABAFC7"/>
<path d="M425.041 406.394C489.403 367.562 498.018 207.78 399.702 184.354C432.643 223.949 426.815 321.983 426.815 321.983C437.827 284.979 436.086 245.322 421.874 209.435C426.022 218.269 429.577 227.372 432.516 236.681C440.365 259.254 442.938 283.34 440.038 307.074C437.138 330.807 428.843 353.551 415.793 373.546C381.839 427.019 329.64 445.607 268.192 445.607C323.049 447.098 377.274 433.542 425.041 406.394Z" fill="#ABAFC7"/>
</g>
</svg>
