<svg width="20" height="20" viewBox="0 0 20 20" fill="none" xmlns="http://www.w3.org/2000/svg">
<g id="Phosphore Icons">
<path id="Vector" d="M10 13.75C12.0711 13.75 13.75 12.0711 13.75 10C13.75 7.92893 12.0711 6.25 10 6.25C7.92893 6.25 6.25 7.92893 6.25 10C6.25 12.0711 7.92893 13.75 10 13.75Z" stroke="#FCFEFF" stroke-width="1.5" stroke-linecap="round" stroke-linejoin="round"/>
<path id="Vector_2" d="M15.422 6.30469C15.61 6.57396 15.7747 6.85886 15.9141 7.15625L17.9376 8.28125C18.1902 9.41287 18.1929 10.586 17.9454 11.7187L15.9141 12.8437C15.7747 13.1411 15.61 13.426 15.422 13.6953L15.461 16.0156C14.6035 16.7971 13.5885 17.3858 12.4845 17.7422L10.4923 16.5469C10.1646 16.5703 9.8356 16.5703 9.5079 16.5469L7.52352 17.7344C6.41595 17.3845 5.39766 16.798 4.53915 16.0156L4.57821 13.7031C4.3917 13.4301 4.22712 13.1428 4.08602 12.8437L2.06258 11.7187C1.80993 10.5871 1.80726 9.41401 2.05477 8.28125L4.08602 7.15625C4.22546 6.85886 4.39013 6.57396 4.57821 6.30469L4.53915 3.98437C5.39669 3.20294 6.41163 2.61422 7.51571 2.25781L9.5079 3.45312C9.8356 3.42968 10.1646 3.42968 10.4923 3.45312L12.4766 2.26563C13.5842 2.61554 14.6025 3.20199 15.461 3.98437L15.422 6.30469Z" stroke="#FCFEFF" stroke-width="1.5" stroke-linecap="round" stroke-linejoin="round"/>
</g>
</svg>
