<svg width="20" height="20" viewBox="0 0 20 20" fill="none" xmlns="http://www.w3.org/2000/svg">
<g id="Phosphore Icons">
<path id="Vector" d="M16.9453 16.25H3.07813C3.0022 16.25 2.92703 16.235 2.85689 16.206C2.78674 16.1769 2.72301 16.1344 2.66933 16.0807C2.61564 16.027 2.57306 15.9633 2.54401 15.8931C2.51495 15.823 2.5 15.7478 2.5 15.6719V6.25H16.875C17.0408 6.25 17.1997 6.31585 17.3169 6.43306C17.4342 6.55027 17.5 6.70924 17.5 6.875V15.6953C17.5 15.8424 17.4416 15.9835 17.3375 16.0875C17.2335 16.1916 17.0924 16.25 16.9453 16.25Z" stroke="#192431" stroke-width="1.5" stroke-linecap="round" stroke-linejoin="round"/>
<path id="Vector_2" d="M2.5 6.25V4.375C2.5 4.20924 2.56585 4.05027 2.68306 3.93306C2.80027 3.81585 2.95924 3.75 3.125 3.75H7.24219C7.32334 3.74972 7.40376 3.76544 7.47883 3.79628C7.5539 3.82711 7.62216 3.87245 7.67969 3.92969L10 6.25" stroke="#192431" stroke-width="1.5" stroke-linecap="round" stroke-linejoin="round"/>
</g>
</svg>
