<svg width="20" height="20" viewBox="0 0 20 20" fill="none" xmlns="http://www.w3.org/2000/svg">
<g id="Phosphore Icons">
<path id="Vector" d="M11.875 16.25V12.5C11.875 12.3343 11.8092 12.1753 11.6919 12.0581C11.5747 11.9409 11.4158 11.875 11.25 11.875H8.75C8.58424 11.875 8.42527 11.9409 8.30806 12.0581C8.19085 12.1753 8.125 12.3343 8.125 12.5V16.25C8.125 16.4158 8.05915 16.5748 7.94194 16.692C7.82473 16.8092 7.66576 16.875 7.5 16.875H3.75C3.58424 16.875 3.42527 16.8092 3.30806 16.692C3.19085 16.5748 3.125 16.4158 3.125 16.25V9.02348C3.1264 8.93699 3.14509 8.85165 3.17998 8.77249C3.21486 8.69332 3.26523 8.62194 3.32812 8.56255L9.57812 2.88286C9.69334 2.77745 9.84384 2.71899 10 2.71899C10.1562 2.71899 10.3067 2.77745 10.4219 2.88286L16.6719 8.56255C16.7348 8.62194 16.7851 8.69332 16.82 8.77249C16.8549 8.85165 16.8736 8.93699 16.875 9.02348V16.25C16.875 16.4158 16.8092 16.5748 16.6919 16.692C16.5747 16.8092 16.4158 16.875 16.25 16.875H12.5C12.3342 16.875 12.1753 16.8092 12.0581 16.692C11.9408 16.5748 11.875 16.4158 11.875 16.25Z" stroke="#192431" stroke-width="1.5" stroke-linecap="round" stroke-linejoin="round"/>
</g>
</svg>
