<svg width="20" height="20" viewBox="0 0 20 20" fill="none" xmlns="http://www.w3.org/2000/svg">
<path d="M11.875 2.5V6.875H16.25" stroke="#ABAFC7" stroke-width="1.5" stroke-linecap="round" stroke-linejoin="round"/>
<path d="M11.5625 10L13.4375 11.875L11.5625 13.75" stroke="#ABAFC7" stroke-width="1.5" stroke-linecap="round" stroke-linejoin="round"/>
<path d="M8.4375 10L6.5625 11.875L8.4375 13.75" stroke="#ABAFC7" stroke-width="1.5" stroke-linecap="round" stroke-linejoin="round"/>
<path d="M15.625 17.5C15.7908 17.5 15.9497 17.4342 16.0669 17.3169C16.1842 17.1997 16.25 17.0408 16.25 16.875V6.875L11.875 2.5H4.375C4.20924 2.5 4.05027 2.56585 3.93306 2.68306C3.81585 2.80027 3.75 2.95924 3.75 3.125V16.875C3.75 17.0408 3.81585 17.1997 3.93306 17.3169C4.05027 17.4342 4.20924 17.5 4.375 17.5H15.625Z" stroke="#ABAFC7" stroke-width="1.5" stroke-linecap="round" stroke-linejoin="round"/>
</svg>
