<svg width="20" height="20" viewBox="0 0 20 20" fill="none" xmlns="http://www.w3.org/2000/svg">
<path d="M6.25 3.125C1.25 3.125 6.25 10 1.25 10C6.25 10 1.25 16.875 6.25 16.875" stroke="#EC4525" stroke-width="1.5" stroke-linecap="round" stroke-linejoin="round"/>
<path d="M13.75 3.125C18.75 3.125 13.75 10 18.75 10C13.75 10 18.75 16.875 13.75 16.875" stroke="#EC4525" stroke-width="1.5" stroke-linecap="round" stroke-linejoin="round"/>
<path d="M15 19C17.2091 19 19 17.2091 19 15C19 12.7909 17.2091 11 15 11C12.7909 11 11 12.7909 11 15C11 17.2091 12.7909 19 15 19Z" fill="#EC4525" stroke="#FCFEFF" stroke-width="0.8" stroke-miterlimit="10"/>
<path d="M15 13.3337V16.6671" stroke="#FCFEFF" stroke-width="0.8" stroke-linecap="round" stroke-linejoin="round"/>
<path d="M13.3333 15H16.6666" stroke="#FCFEFF" stroke-width="0.8" stroke-linecap="round" stroke-linejoin="round"/>
</svg>
