<svg width="27" height="20" viewBox="0 0 27 20" fill="none" xmlns="http://www.w3.org/2000/svg">
<g id="Vector">
<path d="M0.271136 8.24108L8.02875 0.276477C8.20117 0.0994519 8.43503 0 8.67888 0H25.3287C26.1479 0 26.5581 1.01677 25.9789 1.61143L18.2213 9.57603C18.0488 9.75306 17.815 9.85251 17.5711 9.85251H0.921265C0.102148 9.85251 -0.308067 8.83574 0.271136 8.24108Z" fill="#FCFEFF"/>
<path d="M17.5711 14.8083H0.921265C0.102148 14.8083 -0.308068 13.7915 0.271135 13.1968L1.47788 11.9579C1.6503 11.7809 1.88416 11.6814 2.128 11.6814H17.5711C17.815 11.6814 18.0488 11.582 18.2213 11.4049L24.0037 5.46822C24.1761 5.29119 24.41 5.19174 24.6538 5.19174H25.0989C25.918 5.19174 26.3282 6.20851 25.749 6.80317L18.2213 14.5318C18.0488 14.7088 17.815 14.8083 17.5711 14.8083Z" fill="#FCFEFF"/>
<path d="M17.5711 20H0.921265C0.102148 20 -0.308068 18.9832 0.271135 18.3886L1.47788 17.1496C1.6503 16.9726 1.88416 16.8732 2.128 16.8732H17.5711C17.815 16.8732 18.0488 16.7737 18.2213 16.5967L24.0037 10.66C24.1761 10.4829 24.41 10.3835 24.6538 10.3835H25.0989C25.918 10.3835 26.3282 11.4003 25.749 11.9949L18.2213 19.7235C18.0488 19.9005 17.815 20 17.5711 20Z" fill="#FCFEFF"/>
</g>
</svg>
